<?xml version="1.0" encoding="utf-8"?><!-- Uploaded to: SVG Repo, www.svgrepo.com, Generator: SVG Repo Mixer Tools -->
<svg width="800px" height="800px" viewBox="0 0 64 64" xmlns="http://www.w3.org/2000/svg" xmlns:xlink="http://www.w3.org/1999/xlink" aria-hidden="true" role="img" class="iconify iconify--emojione-monotone" preserveAspectRatio="xMidYMid meet"><path d="M29 51.098h6V58h-6z" fill="#000000"></path><path d="M29 6h6v6.902h-6z" fill="#000000"></path><path d="M51.098 29.001H58v6h-6.902z" fill="#000000"></path><path d="M6 29.001h6.902v6H6z" fill="#000000"></path><path d="M15.736 52.506l-4.242-4.242l4.881-4.88l4.242 4.241z" fill="#000000"></path><path d="M48.264 11.494l4.242 4.241l-4.88 4.88l-4.243-4.241z" fill="#000000"></path><path d="M48.261 52.507l-4.88-4.88l4.24-4.242l4.882 4.88z" fill="#000000"></path><path d="M15.736 11.494l4.881 4.88l-4.242 4.243l-4.88-4.881z" fill="#000000"></path><path d="M32 17c-8.285 0-15 6.716-15 15s6.715 15 15 15c8.283 0 15-6.716 15-15s-6.717-15-15-15m0 25c-5.523 0-10-4.478-10-10s4.477-10 10-10c5.521 0 10 4.478 10 10s-4.479 10-10 10" fill="#000000"></path></svg>