<?xml version="1.0" encoding="UTF-8" standalone="no"?>
<!-- Uploaded to: SVG Repo, www.svgrepo.com, Generator: SVG Repo Mixer Tools -->

<svg
   fill="#000000"
   version="1.1"
   id="Layer_1"
   viewBox="0 0 512.001 512.001"
   xml:space="preserve"
   sodipodi:docname="icon.svg"
   inkscape:version="1.3.2 (091e20e, 2023-11-25, custom)"
   xmlns:inkscape="http://www.inkscape.org/namespaces/inkscape"
   xmlns:sodipodi="http://sodipodi.sourceforge.net/DTD/sodipodi-0.dtd"
   xmlns="http://www.w3.org/2000/svg"
   xmlns:svg="http://www.w3.org/2000/svg"><defs
   id="defs11" /><sodipodi:namedview
   id="namedview11"
   pagecolor="#ffffff"
   bordercolor="#000000"
   borderopacity="0.25"
   inkscape:showpageshadow="2"
   inkscape:pageopacity="0.0"
   inkscape:pagecheckerboard="0"
   inkscape:deskcolor="#d1d1d1"
   inkscape:zoom="1.5878876"
   inkscape:cx="255.6856"
   inkscape:cy="256.00049"
   inkscape:window-width="1920"
   inkscape:window-height="1009"
   inkscape:window-x="-8"
   inkscape:window-y="-8"
   inkscape:window-maximized="1"
   inkscape:current-layer="Layer_1" />
<path
   d="M450.536,224.687h49.976L256.001,0L11.489,224.687h49.976v269.357H22.558v17.957h466.886v-17.957h-38.907V224.687z   M57.569,206.73l26.056-23.943h262.161V164.83h-242.62L256.001,24.387l198.431,182.342H57.569V206.73z M79.422,272.573h62.85  v-17.957h-62.85v-29.929h353.157v29.929h-62.85v17.957h62.85v221.471H79.422L79.422,272.573L79.422,272.573z"
   id="path1" />
<path
   d="M256.001,69.058c-21.453,0-38.907,17.454-38.907,38.907s17.454,38.907,38.907,38.907c21.454,0,38.907-17.454,38.907-38.907  S277.455,69.058,256.001,69.058z M256.001,128.916c-11.551,0-20.95-9.399-20.95-20.95s9.399-20.95,20.95-20.95  s20.95,9.399,20.95,20.95S267.552,128.916,256.001,128.916z"
   id="path2" />
<path
   d="M256.001,254.616c-46.363,0-77.054,20.961-94.638,38.544c-18.995,18.995-27.045,38.009-27.379,38.809l16.576,6.908  c0.277-0.663,28.516-66.304,105.441-66.304c32.033,0,59.436,11.033,81.446,32.795c16.7,16.509,23.931,33.361,23.994,33.509  l16.576-6.908c-0.333-0.8-8.384-19.815-27.377-38.809C333.055,275.575,302.362,254.616,256.001,254.616z"
   id="path3" />
<path
   d="M256.001,302.501c-32.146,0-52.274,14.604-63.5,26.855c-12.125,13.233-16.662,26.613-16.849,27.176l17.028,5.702  c0.583-1.706,14.849-41.777,63.32-41.777c48.736,0,64.81,40.375,65.457,42.059l16.814-6.305  C337.449,354.019,317.422,302.501,256.001,302.501z"
   id="path4" />
<path
   d="M256.001,350.386c-33.964,0-44.017,28.842-44.427,30.07l17.027,5.704c0.06-0.178,6.214-17.816,27.401-17.816  c21.074,0,28.199,17.442,28.464,18.116l16.814-6.305C300.823,378.94,289.729,350.386,256.001,350.386z"
   id="path5" />
<path
   d="M256.001,398.271c-18.153,0-32.921,14.768-32.921,32.921s14.768,32.921,32.921,32.921c18.152,0,32.921-14.768,32.921-32.921  C288.922,413.041,274.153,398.271,256.001,398.271z M256.001,446.157c-8.252,0-14.964-6.712-14.964-14.964  c0-8.252,6.712-14.964,14.964-14.964c8.252,0,14.964,6.712,14.964,14.964C270.965,439.445,264.251,446.157,256.001,446.157z"
   id="path6" />
<rect
   x="100.368"
   y="452.149"
   width="23.943"
   height="17.957"
   id="rect6" />
<rect
   x="136.283"
   y="452.149"
   width="23.943"
   height="17.957"
   id="rect7" />
<rect
   x="100.368"
   y="416.235"
   width="23.943"
   height="17.957"
   id="rect8" />
<rect
   x="387.683"
   y="452.149"
   width="23.943"
   height="17.957"
   id="rect9" />
<rect
   x="351.768"
   y="452.149"
   width="23.943"
   height="17.957"
   id="rect10" />
<rect
   x="387.683"
   y="416.235"
   width="23.943"
   height="17.957"
   id="rect11" />
<text
   xml:space="preserve"
   style="font-size:40px;white-space:pre;inline-size:49.8511;fill:#010101"
   x="45.973026"
   y="34.637211"
   id="text11" /><text
   xml:space="preserve"
   style="font-size:40px;fill:#010101;-inkscape-font-specification:'Bahnschrift Bold';font-family:Bahnschrift;font-weight:bold;font-style:normal;font-stretch:normal;font-variant:normal"
   x="45.343262"
   y="61.717216"
   id="text12"><tspan
     sodipodi:role="line"
     id="tspan12"
     x="45.343262"
     y="61.717216" /></text><text
   xml:space="preserve"
   style="font-style:normal;font-variant:normal;font-weight:bold;font-stretch:normal;font-size:40px;font-family:Bahnschrift;-inkscape-font-specification:'Bahnschrift Bold';fill:#010101"
   x="25.190701"
   y="62.346981"
   id="text13"><tspan
     sodipodi:role="line"
     id="tspan13"
     x="25.190701"
     y="62.346981">WizWifi</tspan></text><text
   xml:space="preserve"
   style="font-style:normal;font-variant:normal;font-weight:bold;font-stretch:normal;font-size:40px;font-family:Bahnschrift;-inkscape-font-specification:'Bahnschrift Bold';fill:#010101"
   x="367.15445"
   y="61.087448"
   id="text14"><tspan
     sodipodi:role="line"
     id="tspan14"
     x="367.15445"
     y="61.087448">by</tspan><tspan
     sodipodi:role="line"
     x="367.15445"
     y="111.08745"
     id="tspan15">    JIB</tspan></text><text
   xml:space="preserve"
   style="font-style:normal;font-variant:normal;font-weight:bold;font-stretch:normal;font-size:20px;font-family:Bahnschrift;-inkscape-font-specification:'Bahnschrift Bold';fill:#010101"
   x="30.22884"
   y="105.17117"
   id="text16"><tspan
     sodipodi:role="line"
     id="tspan16"
     x="30.22884"
     y="105.17117" /></text><text
   xml:space="preserve"
   style="font-style:normal;font-variant:normal;font-weight:bold;font-stretch:normal;font-size:20px;font-family:Bahnschrift;-inkscape-font-specification:'Bahnschrift Bold';fill:#010101"
   x="30.22884"
   y="84.388847"
   id="text17"><tspan
     sodipodi:role="line"
     id="tspan17"
     x="30.22884"
     y="84.388847">Local access</tspan></text></svg>
